<?xml version="1.0" encoding="UTF-8"?>
<svg id="Layer_2" data-name="Layer 2" xmlns="http://www.w3.org/2000/svg" viewBox="0 0 198.64 160.44">
  <defs>
    <style>
      .cls-1 {
        fill: #d7f0fc;
      }
    </style>
  </defs>
  <g id="Layer_1-2" data-name="Layer 1">
    <g>
      <path class="cls-1" d="M45,71.18C29.97,62.24,6.03,43.07,10.01,24.4c8.25-11.67,30.6,17.57,37.29,22.81"/>
      <path class="cls-1" d="M155.73,49.37c8.67-4.87,17.9-10.25,24.51-17.81,3.76-4.24,7.78-9.16,11.51-9.77,6.61-.94,7.79,7.77,6.33,12.75-6.62,20.5-27.62,33.79-47.09,42.55"/>
      <path class="cls-1" d="M44.35,72.13c1.73,25.09-15.77,45.4-34.8,59.29-11.77,7.93-14.49,15.92,2.38,17.33,8.58.56,16.79-2.05,25.18-2.99,10.39-1.32,21.42.8,33.04,2.47"/>
      <path class="cls-1" d="M152.97,77.11c2.42,20.8,9.28,41.59,18.95,60,.99,1.91,2.04,4.14,2.27,6.2.74,6.38-7.09,7.83-12.06,8.49-12.95,1.85-23.95-1.9-36.26-4.69-11.84-2.72-23.91-3.2-35.74-3.15"/>
      <path class="cls-1" d="M56.41,157.57c-.65-2.19,1.83-6.07,2.64-9.61,2.07-11.92-3.57-24.95-6.76-35.69-9.81-32.03-14.43-70.22,9.85-97.12C80.68-3.98,111.58-3.83,132.09,9.1c23.02,15.87,27.36,46.18,19.7,71.59-6.7,23.09-22.34,41.08-40.51,57.4-14.07,11.8-29.18,23.81-48.09,22.21-2.24-.17-5.68-.57-6.65-2.41l-.12-.31Z"/>
      <g>
        <path class="cls-1" d="M110.07,63.25c2.27,1.79-.72,11.5-7.76,13.48-5.44,1.52-13.32-1.47-15.76-10.27-.2-.71.55-1.36,1.37-1.2,2.97.53,6.85.87,11.27.25,6.53-.94,9.44-3.35,10.88-2.25Z"/>
        <path class="cls-1" d="M97.02,76.15c-.99-.28-1.88-.89-3.1-1.73-1.08-.74-1.12-.94-1.1-1.05.09-.73,2.47-.71,5.68-1.69,2.17-.66,4.8-1.8,8.41-3.36.93-.4,1.98-.87,2.35-.57.47.37-.45,1.75-.91,2.44-.82,1.23-1.83,2.74-4.01,4.07-1.2.73-4.46,2.72-7.32,1.9Z"/>
        <path class="cls-1" d="M110.07,63.25c2.27,1.79-.72,11.5-7.76,13.48-5.44,1.52-13.32-1.47-15.76-10.27-.2-.71.55-1.36,1.37-1.2,2.97.53,6.85.87,11.27.25,6.53-.94,9.44-3.35,10.88-2.25Z"/>
      </g>
      <path class="cls-1" d="M85.31,40.07c0,6.56-1.98,11.88-4.43,11.88-2.44,0-4.43-5.32-4.43-11.88,0-6.56,1.98-11.88,4.43-11.88,2.44,0,4.43,5.32,4.43,11.88Z"/>
      <path class="cls-1" d="M118.24,40.07c0,6.78-1.98,12.27-4.43,12.27s-4.43-5.49-4.43-12.27,1.98-12.27,4.43-12.27,4.43,5.49,4.43,12.27Z"/>
    </g>
  </g>
</svg>