<?xml version="1.0" encoding="UTF-8"?>
<svg id="Layer_2" data-name="Layer 2" xmlns="http://www.w3.org/2000/svg" viewBox="0 0 49.83 54.57">
  <defs>
    <style>
      .cls-1 {
        fill: #f6a2b0;
      }

      .cls-1, .cls-2, .cls-3, .cls-4 {
        stroke-miterlimit: 10;
      }

      .cls-1, .cls-3 {
        stroke: #702d3c;
      }

      .cls-5, .cls-4 {
        fill: #daebf3;
      }

      .cls-2, .cls-3 {
        fill: none;
      }

      .cls-2, .cls-4 {
        stroke: #9fc0d2;
      }
    </style>
  </defs>
  <g id="Layer_1-2" data-name="Layer 1">
    <path class="cls-4" d="M3.22,39.27c-.2.65-.61,2.26-.24,3.14.61,1.44,2.08,1.38,3.7,2.71,2.14,1.76,1.25,3.25,3.16,4.88,1.31,1.12,2.24.85,5.87,1.72,4.26,1.02,4.37,1.73,6.77,2.17,1.29.24,3.6.7,10.85-1.87,4.5-1.6,7.66-3.7,9.26-5.51,1.35-1.53,4.13-2.09,5.09-3.18,1.48-1.67,3.25-4.65-1.19-6.77"/>
    <path class="cls-5" d="M3.49,8.04c3.43-1.39,8.1-2.81,17.18-5.66.31-.1.12-.74,6.54-1.58,1.9-.25,2.37.42,3.32.65,1.77.43,2.52,1.56,4.26,3.3,1.6,1.6,4.46,4.45,8.28,6.43,1.71.89,2.97,1.27,3.63,2.64.73,1.53.63,2.99.53,3.66-1.04,6.72-.99,14.8-1.06,21.61-1.99,1.37-4.31,2.16-7.51,4.23-10.09,5.39-14.38,7.66-17.33,7.3-.84-.1-1.44-1.05-5.12-2.82-7.17-3.45-7.44-5.25-12.02-7.76-1.75-.96-2.2-2.14-2.87-3.47-1.4-2.73-.94-4.97-.66-9.14,0,0-.11.73-.3-14.17l.58-3.32s1.61-1.53,2.55-1.92Z"/>
    <path class="cls-1" d="M25.08,31.85c-1.18-1.62-8.91-12.36-6.08-16.14.16-.21,1.12-1.49,2.51-1.52,1.33-.03,2.44,1.15,3.28,2.91.04.08.14.08.18,0,.85-1.76,2.37-2.94,3.7-2.91,1.39.03,2.35,1.31,2.51,1.52,2.83,3.78-4.9,14.52-6.08,16.14"/>
    <path class="cls-2" d="M.5,11.94c.26-.72.91-1.5,1.3-1.65.66-.27,1.76.34,2.03.52,1.34.9,8.51,6.73,18.72,13.25.28.17.55.28.84.72.32.48.28,1.03.27,1.21-.07,1.11-.55,11.56-1.11,24.57"/>
    <path class="cls-2" d="M23.67,26.05c-.02-.16.24-.81.5-1.08.06-.06.14-.13.49-.26.16-.06.45-.15.75-.23.24-.06.47-.13.71-.22,9.29-3.49,17.91-7.11,19.61-7.87.46-.2,1.39-.64,1.49-1.37.07-.49-.26-.93-.52-1.22-6.94-4.89-14.51-11.28-16.18-12.37-.41-.27-1.3-.84-2.54-.93-1.02-.08-2.81.33-3.37.57C13.69,4.65,5.73,7.32,3.49,8.04c-.48.15-1.68.53-2.4,1.64-.51.78-.58,2.29-.58,2.81.15,9.23.23,16,.05,19.21-.04.76-.18,2.72.76,4.88h0c.61,1.4,1.61,2.6,2.87,3.47,5.33,3.65,7.74,4.88,12.02,7.76.13.08,4.34,2.56,5.12,2.82,0,0,.86.28,1.93,0,1.44-.38,10.21-4.6,21.57-10.45.35-.13.82-.37,1.19-.84.67-.86.54-1.97.52-2.27-.14-1.73.11-11.05.63-21.81"/>
    <path class="cls-3" d="M10.49,27.92c0,2.55-.52,4.61-1.16,4.61s-1.16-2.06-1.16-4.61.52-4.61,1.16-4.61,1.16,2.06,1.16,4.61Z"/>
    <path class="cls-3" d="M15.64,30.23c0,2.55-.52,4.61-1.16,4.61s-1.16-2.06-1.16-4.61.52-4.61,1.16-4.61,1.16,2.06,1.16,4.61Z"/>
    <path class="cls-3" d="M13.51,36.7c-.38.72-1.05,1.27-1.81,1.28-.83.02-1.37-.51-1.5-.64-.84-.84-.89-2.15-.87-2.26l1.27.46c1.3.5,1.6.66,2.9,1.16Z"/>
  </g>
</svg>