<?xml version="1.0" encoding="UTF-8"?>
<svg id="Layer_2" data-name="Layer 2" xmlns="http://www.w3.org/2000/svg" viewBox="0 0 41.62 51.49">
  <defs>
    <style>
      .cls-1 {
        fill: #f5886c;
      }

      .cls-1, .cls-2, .cls-3 {
        stroke: #7c2c34;
        stroke-miterlimit: 10;
      }

      .cls-4 {
        fill: #7c2c34;
      }

      .cls-2 {
        fill: none;
      }

      .cls-3 {
        fill: #fbb993;
      }
    </style>
  </defs>
  <g id="Layer_1-2" data-name="Layer 1">
    <path class="cls-1" d="M25.68,49.96c1.74-.25,3.53-.18,5.08-1.02,2-1.22,3.79-3.14,5.12-5.64,1.45-2.56,1.24-6.34,1.78-8.66,1.38-5.42,3.07-11.22,3.45-16.87.08-1.59-.73-.91-1.68-.21-.82.41-4.3,4.26-4.81,2.82-.49-1.8,0-5.48-.33-7.64-.71-9.36-4.12-4.55-5.92.55-.56,1.58-.94,1.42-1.4.11-.98-3.25-1.9-7.07-1.83-10.29,0-.68.05-1.68-.04-2.22-.31-1.42-1.58,1.51-1.8,1.94-1.66,3.69-2.49,6.99-3.56,10.59-.93,2.73-1.62,6.97-3.41,1.83-1.57-4.22-1.05-9.43-3.05-13.44-.88-1.28-1.38.64-1.61,1.35-.85,2.83-1.8,5.64-2.59,8.45-1.14,3.22-1.96,5.62-1.92,9.01-.14,1.09.47,5.89-.75,3.63C4.74,21.51-.45,8.21.65,19.53c.68,6.52,2.95,10.48,4.65,16.48,1.59,5.71,1.84,12.26,7.65,14.52,4.12,1.21,8.36-.3,12.59-.56h.14Z"/>
    <path class="cls-3" d="M17.29,28.67c-1.11-.07-2-2.06-2.6-2.95-1.57-2.74-1.63-5.26-2.53-7.49-.09-.11-.2-.11-.3,0-.52.76-.59,1.74-.8,2.72-.4,2.29-.5,4.41-.43,6.59-.15,3.8,0,9.74.81,13.07,1.22,5.43,3.59,7.55,10.12,5.25,2.75-1.06,5.52-1.82,7.9-3.66,1.71-1.5,1.9-4.08,2.69-6.09.37-1.09,1.02-2.74,1.27-3.54.11-.47.38-1.03-.04-1.34-.22-.14-.72-.07-1.26.05-1.15.34-1.75-.56-1.64-1.59,0-.6.55-1.66.82-2.15.4-1.04-1.14-.83-1.93-.62-.7.2-1.39.7-1.91,1.17-1.97,1.88.25-7.29-.76-8.14-.17-.15-.53.09-.89.46-.6.63-1.03,1.18-1.49,1.75-.68.85-1.65,2.19-2.18,2.87-.37.45-.61.75-.85.74-.61-.35-.48-1.71-.4-2.39,0-.45.49-1.46.16-1.7-1.34.01-2.57,1.89-2.92,2.95-.29.82-.45,2.37-.51,3.18-.05.45-.11.73-.28.83l-.05.02Z"/>
    <line class="cls-2" x1="23.69" y1="30.31" x2="23.03" y2="33.73"/>
    <line class="cls-2" x1="17.96" y1="30.75" x2="17.3" y2="34.17"/>
    <ellipse class="cls-4" cx="20.18" cy="39.37" rx="3.18" ry="2.51"/>
  </g>
</svg>