<?xml version="1.0" encoding="UTF-8"?>
<svg id="Layer_2" data-name="Layer 2" xmlns="http://www.w3.org/2000/svg" xmlns:xlink="http://www.w3.org/1999/xlink" viewBox="0 0 151.73 174.22">
  <defs>
    <style>
      .cls-1 {
        fill: url(#linear-gradient-2);
      }

      .cls-1, .cls-2, .cls-3, .cls-4 {
        stroke: #612331;
        stroke-miterlimit: 10;
        stroke-width: 2px;
      }

      .cls-2 {
        fill: #612331;
      }

      .cls-3 {
        fill: #d4bcdb;
      }

      .cls-4 {
        fill: none;
      }

      .cls-5 {
        fill: url(#linear-gradient);
      }
    </style>
    <linearGradient id="linear-gradient" x1="74.79" y1="75.3" x2="75.78" y2="207.04" gradientUnits="userSpaceOnUse">
      <stop offset="0" stop-color="#d4bcdb"/>
      <stop offset="1" stop-color="#a58bc1"/>
    </linearGradient>
    <linearGradient id="linear-gradient-2" x1="78.46" y1="1.1" x2="79.04" y2="78.77" xlink:href="#linear-gradient"/>
  </defs>
  <g id="Layer_1-2" data-name="Layer 1">
    <g>
      <path class="cls-5" d="M149.89,172.54c-.27.49-.84.6-2.16.57-1.24-.03-3.15-.19-6.09-.28h-.11s-.03-.01-.05-.01c-5.66-.18-7.92-1.05-10.68-1.71-1.74-.42-3.66-.76-6.75-.81h-.01c-4.33-.06-7.66.51-9.41-1.69-1.14-1.45-.95-3.33-2.1-3.58h-.01s-.03-.01-.05-.01c-1.33-.23-2.18,1.9-4.33,2.91-.01.01-.02.02-.03.02-.7.33-1.43.48-2.18.5-2.41.08-6.3.07-8.86-1.17-5.32-2.59-8.04-7.7-8.77-8.42-.2-.22-.4-.43-.61-.64-2.38-2.52-3.81-3.52-6.38-3.69-.35-.02-1.56-1.16-2.52-.64-.22.11-.42.25-.57.43-.07.05-.11.11-.16.17-1.38,1.81,1.41,4.59,2.16,10.52.01.07.02.15.03.23.01.04.01.09.02.14.03.3.08.69.11,1.14.01.18.02.37.04.57.02.19.02.38.03.58.01.41.01.84,0,1.26-.01.1-.02.2-.02.3,0,.07-.01.15-.02.22-.05.5-.14.97-.27,1.38-.05.16-.11.31-.18.45h0c-.08.14-.16.26-.24.37-.13.16-.29.29-.47.37-.08.04-.16.07-.25.08-.06.02-.13.03-.2.02-1.31,0-2.91-2.29-6.45-3.51-2.24-.78-4.12-.73-7.16-.49-.05.01-.11.01-.16.02h-.06c-4.67.39-7.96.87-10.63,1.28-.02,0-.04,0-.05,0-4.02.6-6.67,1.03-10.63.67-.05,0-.11,0-.17-.01-4.42-.41-6.65-1.43-7.9-2.35-.05-.04-.11-.09-.16-.13-.33-.25-.59-.5-.79-.72-.01-.01-.03-.03-.04-.04-1.96-2.12-2.44-4.64-2.74-6.22-.01-.04-.01-.07-.02-.11h0c-.54-2.97-.08-5.37.23-6.83.01-.04.01-.07.02-.1.93-4.38,2.89-6.83,2.5-7.1-.39-.26-2.25,2.2-3.99,5.09-.37.62-1.62,3.42-2.58,8.8-.96,5.37-1.02,7.1-2.51,8.05-1.04.67-2.55.42-3.89-.07,0,0-.01,0-.02,0-1.53-.55-2.84-1.4-3.03-1.52-1.45-.96-1.5-1.62-3.25-2.79-.01,0-.01,0-.02-.02-1-.66-1.97-1.1-5.98-2.29-.01,0-.03,0-.04,0-2.77-.83-4.32-1.22-5.3-1.55-.91-.3-1.34-.56-1.77-1.05-.61-.69-.94-1.51-1.11-2.43h0c-.16-.92-.36-1.97-.09-3.02,2.07-7.95,4.71-14.86,6.35-19.16h0c3.98-7.36,4.27-7.08,6.4-11.2,2.37-4.58,4.13-9.87,6.96-19.15.43-1.4.88-2.89,1.36-4.48.01-.03.02-.07.03-.1,4.25-14.02,5-18.4,5.42-21.55.25-1.85.42-3.58.55-5.16.18-2.35.26-4.39.28-6.02l8.98-11.94,28.41-9.59,12.32.86,10.79.68,8.39,3.77,8.9,1.71,6.39,1.2,5.28,6.62c1.98,8.91,5.71,13.46,8.9,15.99.98.78,1.86,1.31,2.67,1.87,1.07.71,2.05,1.44,3.07,2.76.93,1.19,1.59,2.46,2.05,3.76,1.36,3.74,1.08,7.69.91,10.43v.03c-.04.64-.65,11.1-.54,31.27v.19c.02,3.83.04,7.02.15,9.78v.02c.21,5.35.76,9.11,2.3,12.89,0,.02.01.03.02.05,3.92,9.59,7.42,14.75,8.23,15.9.19.26.39.51.58.76,2.3,2.97,4.5,5.31,3.75,6.68Z"/>
      <g>
        <path class="cls-4" d="M120.67,73.45c-.03-.1-.03-.2-.05-.28"/>
        <path class="cls-1" d="M139.06,68.59c-1.49,6.22-8.33,9.32-9.67,9.81-.81-.56-1.88-.67-3.19-1.21-5.84-2.4-9.6-4.11-14.36-8.97l-9.49-6.9c-4.09-2.41-9.82-5.15-16.57-6.66-8.4-1.87-14.93-1.05-23.33,0-13.39,1.69-22.38,5.69-24.38,6.6-3.62,1.66-6.63,3.39-8.94,4.85-.32.2-.58.45-.78.75-.28.39-.44.86-.49,1.35-.13,1.43-.29,2.98-.49,4.63-2.6-1.78-9.15-6.87-8.8-11.58.17-2.23,1.5-3.81,2.09-4.51,13.67-15.93,36.91-36.56,36.91-36.56,1.1-.98,9.81-8.72,20.9-15.32,2.29-1.37,6.18-3.58,11.49-3.83,1.51-.08,5.73-.23,10.1,2.09,2.71,1.43,4.39,3.24,5.22,4.17,10.74,12.05,17.09,32.26,27.51,43.88,1.04,1.16,5.17,5.63,6.27,12.19.5,3,.1,4.81,0,5.22Z"/>
        <path class="cls-4" d="M33.56,147.96c-1.71,3.66-2.5,11.89-1.09,15.62,1.05,2.79,3.32,4.33,3.92,4.73,2.29,1.52,4.63,1.69,6.49,1.76,6.65.26,11.51-.76,20.41-1.76,5.03-.56,6.44-.57,8.25,0,4.23,1.33,6.14,4.43,7.71,3.7,1.51-.7,1.24-4.28,1.08-6-.93-10.03-3.99-17.78-4.6-19.33-1.82-4.69-3.96-11.49-5.14-20.41"/>
        <path class="cls-4" d="M102.91,124.38c1.67,5.61,2.52,10.26,2.97,13.52.94,6.67.42,8.45,2.03,13.11.88,2.56,1.78,4.17,3.24,8.65.53,1.62.95,3.07,1.28,4.28.3,1.08-.19,2.24-1.19,2.74-2.53,1.28-6.17,2.49-10.09,1.63-4.6-1-8.18-4.55-10.14-6.49-2.33-2.31-3.01-3.76-5.68-5.54-2.34-1.56-5.67-2.18-7.28-2.57"/>
        <path class="cls-4" d="M41.8,113.97c-1.6,5.93-2.4,10.79-2.84,14.06-.98,7.39-.48,9.52-2.16,14.06-.73,1.97-1.46,3.26-2.21,4.4-.35.52-.7,1.01-1.05,1.52-.87,1.21-1.79,2.52-2.83,4.63-1.51,3.07-3.18,7.67-3.58,14.1-.05.89-.74,1.65-1.63,1.69-1.46.07-2.76.05-3.89-.07,0,0,0,.01-.02,0-2.08-.2-3.57-.72-4.38-1.5-1.08-1.04-1.29-1.94-1.9-2.81-.01,0-.01-.01-.02-.02-.28-.4-.64-.79-1.21-1.18-1.55-1.08-2.85-.95-4.81-1.12-.8-.07-1.72-.18-2.81-.45-.7-.17-1.54-.57-2.49-1.1-.55-.3-1.15-.66-1.77-1.05-.1-.06-.21-.12-.31-.19-.65-.41-1-1.17-.86-1.93.02-.1.04-.21.06-.31h0c.93-5.14,2.58-12.33,5.64-20.55.21-.57.42-1.11.62-1.63h0c4.12-10.53,6.66-12,11.2-24.14.8-2.13,1.51-4.21,2.16-6.21.49-1.54.94-3.03,1.36-4.48.01-.03.02-.07.03-.1,2.07-7.26,3.15-13.2,3.79-16.73.65-3.64,1.12-7.01,1.48-10.02"/>
        <path class="cls-4" d="M102.35,61.32c2.64,1.54,4.59,2.95,5.72,3.79,7.05,5.29,7.73,8.35,14.28,10.83,2.3.87,4.35,1.3,6.17,2.06,1.45.6,2.75,1.4,3.92,2.78,1.01,1.19,1.65,2.5,2.05,3.76.63,1.95.7,3.78.74,4.9.06,1.98.12,3.82.17,5.53v.03c.28,9.63.35,15.64-.17,24.09-.14,2.31-.29,4.78-.37,7.37-.1,3.12-.1,6.4.15,9.78v.02c.31,4.19.98,8.54,2.3,12.89,0,.02.01.03.02.05.54,1.8,1.19,3.61,1.98,5.41,1.8,4.12,4.01,7.61,6.25,10.49.19.26.39.51.58.76,1.46,1.8,2.9,3.35,4.22,4.66.66.64.39,1.73-.47,2.02-.64.21-1.34.44-2.16.57-.51.09-1.06.13-1.67.1-1.87-.08-3.31-.22-4.53-.38-.02-.01-.03-.01-.05-.01-3.67-.51-5.36-1.29-10.68-1.71-.04,0-.08,0-.12,0-2.22-.17-4.42-.48-6.63-.8h-.01c-2.15-.31-4.31-.62-6.47-.82-.66-.05-1.98-.17-2.94-.87-.28-.2-.52-.45-.71-.75-.54-.85-1.14-1.96-1.39-2.83h0s-.02-.08-.02-.12c-.12-.4-.15-.73-.06-.96"/>
      </g>
      <path class="cls-2" d="M36.32,65.38c.93,2.94,8.63,4.52,13.04,5.95,11.7,3.44,23.35,5.3,35.55,4.87,7.37-.03,14.92-.16,22.34-.89,3.62-.51,9-.76,6.99-4.02-4.06-5.83-12.08-9.23-18.25-12.27-3.51-1.58-6.8-2.59-10.67-3.19-7.48-1.25-15.97-1.19-23.62-.07-13.4,1.88-25.73,6.39-25.41,9.55v.06Z"/>
      <path class="cls-3" d="M64.92,56.68c-2.27-.05-4.53,3.99-4.4,7.52.12,3.16,2.19,6.86,4.4,6.81,2.25-.05,4.12-3.97,4.12-7.17,0-3.24-1.92-7.12-4.12-7.17Z"/>
      <path class="cls-3" d="M83.53,57.65c-2.27-.05-4.53,3.99-4.4,7.52.12,3.16,2.19,6.86,4.4,6.81,2.25-.05,4.12-3.97,4.12-7.17,0-3.24-1.92-7.12-4.12-7.17Z"/>
    </g>
  </g>
</svg>