<?xml version="1.0" encoding="UTF-8"?>
<svg id="Layer_2" data-name="Layer 2" xmlns="http://www.w3.org/2000/svg" viewBox="0 0 172.14 172.14">
  <defs>
    <style>
      .cls-1 {
        fill: #fbcbca;
      }

      .cls-2 {
        fill: none;
        stroke-width: 3px;
      }

      .cls-2, .cls-3 {
        stroke: #b44d6d;
        stroke-miterlimit: 10;
      }

      .cls-3 {
        fill: #f8efeb;
        stroke-width: 2px;
      }

      .cls-4 {
        fill: #f37659;
      }
    </style>
  </defs>
  <g id="Layer_1-2" data-name="Layer 1">
    <g>
      <path class="cls-1" d="M86.07,170.64c-46.71,0-84.57-37.86-84.57-84.57,0-46.71,37.86-84.57,84.57-84.57,46.71,0,84.57,37.86,84.57,84.57,0,46.71-37.86,84.57-84.57,84.57Z"/>
      <path class="cls-3" d="M143.98,147.33c-15.31,15.34-34.65,23.05-58.01,23.05C39.24,170.38,1.4,132.5,1.4,85.82c0-5.43.52-10.75,1.52-15.86,4.7,23.88,18.45,45.06,38.53,58.92,19.94,15.93,45.69,25.37,68.46,8.16,3.04-1.87,6.53-2.35,7.15.31.24.97-.55,2.49-1.69,3.32-1.8,1.83-4.8,3.87-6.64,5.29-.17.14-1.07.69-.41.35,1.07-.55,12.51-5.84,18.94-9.57,0,0,1.07-.62,3.14-1.28,2.18-.66,3.28-.21,3.63,0,.93.62,1.17,1.76,1.21,2.04.35,1.73-.79,3.08-.97,3.25l-12.17,6.51c1.29.21,19.58-13.35,17.97-2.33-.28.35-.55.66-.86.97l-13.82,9.99c3.64-3.03,9.72-6.9,13.82-9.99l.48-.35c1.8-.82,4.22-.12,4.27,1.79Z"/>
      <circle class="cls-3" cx="90.59" cy="93.9" r="6.56"/>
      <ellipse class="cls-3" cx="65.56" cy="62.81" rx="3.57" ry="22.24" transform="translate(-14.43 19.85) rotate(-15.53)"/>
      <ellipse class="cls-3" cx="94.69" cy="56.37" rx="3.57" ry="22.24" transform="translate(-11.64 27.41) rotate(-15.53)"/>
      <path class="cls-4" d="M143.98,132.37c-1.59-1.7-11.97-13-8.17-16.97.21-.22,1.5-1.57,3.36-1.6,1.78-.03,3.27,1.21,4.41,3.06.05.08.19.08.24,0,1.14-1.85,3.18-3.09,4.97-3.06,1.86.03,3.15,1.38,3.36,1.6,3.8,3.97-6.58,15.27-8.17,16.97Z"/>
      <circle class="cls-2" cx="86.07" cy="86.07" r="84.57"/>
    </g>
  </g>
</svg>