<?xml version="1.0" encoding="UTF-8"?>
<svg id="Layer_2" data-name="Layer 2" xmlns="http://www.w3.org/2000/svg" viewBox="0 0 52.98 46.91">
  <defs>
    <style>
      .cls-1 {
        fill: #e6a9cc;
      }

      .cls-2, .cls-3 {
        fill: none;
        stroke: #4a6ba5;
        stroke-linecap: round;
      }

      .cls-2, .cls-3, .cls-4 {
        stroke-miterlimit: 10;
      }

      .cls-3 {
        stroke-width: .75px;
      }

      .cls-5 {
        fill: #99b5df;
      }

      .cls-4 {
        fill: #d6f0fc;
        stroke: #496ba5;
      }
    </style>
  </defs>
  <g id="Layer_1-2" data-name="Layer 1">
    <path class="cls-4" d="M14.11,23.01c-5.44-1.54-10.4-4.36-12.99-9.04-.58-1.12-1.07-2.72.08-3.65,3.11-2.56,9.26,2.8,12.02,4.79"/>
    <path class="cls-4" d="M43.15,13.74c1.86-1.56,3.62-3.32,5.5-4.8,1.67-1.33,3.93.05,3.83,2.1-.64,5.08-5.9,8.41-9.95,11.28"/>
    <path class="cls-4" d="M10.57,45.39c-.13-.5.58-1.42.96-1.93,2.81-3.22,3.38-7.3,3.16-11.54-.12-5.25-1.09-10.51-1.01-15.81-.14-15.47,20.87-21.63,28.48-8.27,6.74,13.55-5.01,32.31-18.19,36.98-3.9,1.37-7.37,1.78-11.16,1.52-1.28-.12-2.09-.39-2.23-.89l-.02-.06Z"/>
    <g>
      <path class="cls-2" d="M20.71,13.26c.01-.13.2-1.72,1.51-2.39,1.23-.64,2.94-.2,3.92,1.15"/>
      <path class="cls-2" d="M31.86,11.41c.03-.12.43-1.67,1.83-2.16,1.31-.46,2.94.2,3.72,1.68"/>
      <g>
        <path class="cls-5" d="M24.69,17.73c.34-1.73,7.89-2.56,8.75-.73.48,1.02-1.03,3.08-2.92,3.72-2.98,1.01-6.07-1.77-5.84-2.99Z"/>
        <path class="cls-1" d="M27.51,20.13c-.65-.32-.84-.63-.92-.78-.08-.15-.21-.41-.12-.64.03-.08.16-.33,1.28-.5.48-.07,1.07-.15,1.87-.06.76.09,1.18.28,1.69.51.3.14.46.23.49.39.06.3-.41.61-.76.84-.49.33-.94.63-1.63.7-.83.08-1.43-.22-1.9-.45Z"/>
        <path class="cls-3" d="M24.69,17.73c.34-1.73,7.89-2.56,8.75-.73.48,1.02-1.03,3.08-2.92,3.72-2.98,1.01-6.07-1.77-5.84-2.99Z"/>
      </g>
    </g>
  </g>
</svg>