<?xml version="1.0" encoding="UTF-8"?>
<svg id="Layer_2" data-name="Layer 2" xmlns="http://www.w3.org/2000/svg" viewBox="0 0 43.83 44.49">
  <defs>
    <style>
      .cls-1 {
        fill: #e6a9cc;
      }

      .cls-2 {
        fill: #99b5df;
      }

      .cls-3 {
        fill: #486ba5;
      }

      .cls-4 {
        fill: none;
      }

      .cls-4, .cls-5 {
        stroke: #496ba5;
        stroke-miterlimit: 10;
      }

      .cls-5 {
        fill: #d6f0fc;
      }
    </style>
  </defs>
  <g id="Layer_1-2" data-name="Layer 1">
    <path class="cls-5" d="M11.17,21.29c-4.51-1.9-8.36-4.69-10.41-8.86-.79-1.92.31-4.01,2.16-4.17,1.32-.14,2.63.6,3.73,1.42,1.71,1.36,3.38,2.74,5.24,4.01"/>
    <path class="cls-5" d="M24.85,43.75c11.22,2.29,18.92-12.64,18.46-23.55-.79-21.4-23.69-27.67-30.88-7.19-3.77,11.03,1.44,27.59,12.3,30.71l.12.03Z"/>
    <g>
      <path class="cls-2" d="M30.07,18.07c.73.57-.23,3.7-2.5,4.34-1.75.49-4.28-.47-5.07-3.31-.06-.23.18-.44.44-.39.95.17,2.2.28,3.62.08,2.1-.3,3.04-1.08,3.5-.73Z"/>
      <path class="cls-1" d="M25.88,22.22c-.32-.09-.6-.29-1-.56-.35-.24-.36-.3-.35-.34.03-.23.79-.23,1.83-.54.7-.21,1.54-.58,2.7-1.08.3-.13.64-.28.76-.18.15.12-.14.56-.29.78-.27.4-.59.88-1.29,1.31-.38.23-1.44.87-2.36.61Z"/>
      <path class="cls-4" d="M30.07,18.07c.73.57-.23,3.7-2.5,4.34-1.75.49-4.28-.47-5.07-3.31-.06-.23.18-.44.44-.39.95.17,2.2.28,3.62.08,2.1-.3,3.04-1.08,3.5-.73Z"/>
    </g>
    <path class="cls-3" d="M23.14,10.95c0,2.11-.64,3.82-1.42,3.82s-1.42-1.71-1.42-3.82c0-2.11.64-3.82,1.42-3.82s1.42,1.71,1.42,3.82Z"/>
    <path class="cls-3" d="M32.31,10.95c0,2.18-.64,3.95-1.42,3.95s-1.42-1.77-1.42-3.95.64-3.95,1.42-3.95,1.42,1.77,1.42,3.95Z"/>
    <path class="cls-5" d="M37.27,25.23c-2.44,1.4-5.62,2.23-7.36,4.45-1.32,1.78.47,3.55,2.34,3.61,3.67.32,7.1-1.99,9.79-4.43"/>
  </g>
</svg>