<?xml version="1.0" encoding="UTF-8"?>
<svg id="Layer_2" data-name="Layer 2" xmlns="http://www.w3.org/2000/svg" viewBox="0 0 46.7 46.6">
  <defs>
    <style>
      .cls-1 {
        fill: #99b5df;
      }

      .cls-1, .cls-2 {
        stroke: #496ba5;
      }

      .cls-1, .cls-2, .cls-3 {
        stroke-miterlimit: 10;
      }

      .cls-4 {
        fill: #486ba5;
      }

      .cls-2 {
        fill: #d6f0fc;
      }

      .cls-3 {
        fill: none;
        stroke: #486ba5;
        stroke-linecap: round;
      }
    </style>
  </defs>
  <g id="Layer_1-2" data-name="Layer 1">
    <g>
      <ellipse class="cls-2" cx="23.72" cy="23.85" rx="20.82" ry="22.25"/>
      <ellipse class="cls-4" cx="18.45" cy="16.07" rx="1.42" ry="3.6" transform="translate(-1.32 1.65) rotate(-4.95)"/>
      <ellipse class="cls-1" cx="24.48" cy="23" rx="1.83" ry="1.24"/>
      <path class="cls-2" d="M32.17.5c-.41.4-.65,4.14-.75,5.35-.2,1.27,1.08,3.52,2.69,2.49,1.4-1.48-.13-3.42-.61-5-.31-.71-.97-2.79-1.3-2.84h-.03Z"/>
      <path class="cls-2" d="M3.75,23.78c-.37.06-1.25.24-2.02.96-.87.82-1.06,1.82-1.15,2.31-.27,1.47.22,2.62.38,2.98.19.42.76,1.56,2.02,2.31.37.22.73.34,1.44.58,1.27.42,2.15.71,3.27.67.89-.03,1.17-.24,1.73,0,.47.2.51.46,1.15.86.3.19.8.5,1.44.58,1.14.14,2.03-.54,2.21-.67.92-.69,1.18-1.64,1.25-1.92.22-.85-.33-1.34,0-1.83.16-.23.38-.31,1.15-.48,1.98-.45,2.34-.32,2.88-.71.45-.32.98-.97.86-1.59-.15-.83-1.37-1.17-1.63-1.25-.52-.15-.87-.11-2.59.1-2.02.24-2.45.31-2.79,0-.24-.22-.09-.32-.48-1.63-.51-1.69-.5-1.82-.67-1.92-.37-.22-.88-.06-1.16.11-.27.17-.42.46-.71,1.03-.31.61-.25.68-.53,1.14-.26.42-.51.69-.61.79-.17.17-.39.4-.64.53-.51.27-1.04.11-1.77-.05-.55-.12-1.38-.21-2.36-.53"/>
      <path class="cls-2" d="M42.95,23.78c.37.06,1.25.24,2.02.96.87.82,1.06,1.82,1.15,2.31.27,1.47-.22,2.62-.38,2.98-.19.42-.76,1.56-2.02,2.31-.37.22-.73.34-1.44.58-1.27.42-2.15.71-3.27.67-.89-.03-1.17-.24-1.73,0-.47.2-.51.46-1.15.86-.3.19-.8.5-1.44.58-1.14.14-2.03-.54-2.21-.67-.92-.69-1.18-1.64-1.25-1.92-.22-.85.33-1.34,0-1.83-.16-.23-.38-.31-1.15-.48-1.98-.45-2.34-.32-2.88-.71-.45-.32-.98-.97-.86-1.59.15-.83,1.37-1.17,1.63-1.25.52-.15.87-.11,2.59.1,2.02.24,2.45.31,2.79,0,.24-.22.09-.32.48-1.63.51-1.69.5-1.82.67-1.92.37-.22.88-.06,1.16.11.27.17.42.46.71,1.03.31.61.25.68.53,1.14.26.42.51.69.61.79.17.17.39.4.64.53.51.27,1.04.11,1.77-.05.55-.12,1.38-.21,2.36-.53"/>
      <ellipse class="cls-4" cx="28.99" cy="15.53" rx="1.42" ry="3.6" transform="translate(-1.23 2.56) rotate(-4.95)"/>
      <path class="cls-3" d="M14.41,10.32c.38-.04,1.3-.19,2.18-.89.84-.67,1.21-1.47,1.34-1.83"/>
      <path class="cls-3" d="M30.75,9.97c-.38-.04-1.3-.19-2.18-.89-.84-.67-1.21-1.47-1.34-1.83"/>
    </g>
  </g>
</svg>