<?xml version="1.0" encoding="UTF-8"?>
<svg id="Layer_2" data-name="Layer 2" xmlns="http://www.w3.org/2000/svg" viewBox="0 0 58.13 47.14">
  <defs>
    <style>
      .cls-1 {
        fill: #e6a9cc;
      }

      .cls-2 {
        fill: #99b5df;
      }

      .cls-3 {
        fill: #486ba5;
      }

      .cls-4 {
        fill: none;
      }

      .cls-4, .cls-5 {
        stroke: #496ba5;
        stroke-miterlimit: 10;
      }

      .cls-5 {
        fill: #d6f0fc;
      }
    </style>
  </defs>
  <g id="Layer_1-2" data-name="Layer 1">
    <path class="cls-5" d="M13.44,20.97C9.12,18.4,2.24,12.89,3.38,7.52c2.37-3.36,8.8,5.05,10.73,6.56"/>
    <path class="cls-5" d="M45.29,14.7c2.49-1.4,5.15-2.95,7.05-5.12,1.08-1.22,2.24-2.63,3.31-2.81,1.9-.27,2.24,2.23,1.82,3.67-1.9,5.9-7.94,9.72-13.54,12.24"/>
    <path class="cls-5" d="M13.26,21.24c.5,7.22-4.54,13.06-10.01,17.05-3.39,2.28-4.17,4.58.68,4.98,2.47.16,4.83-.59,7.24-.86,2.99-.38,6.16.23,9.5.71"/>
    <path class="cls-5" d="M44.5,22.68c.7,5.98,2.67,11.96,5.45,17.26.28.55.59,1.19.65,1.78.21,1.84-2.04,2.25-3.47,2.44-3.72.53-6.89-.55-10.43-1.35-3.41-.78-6.88-.92-10.28-.91"/>
    <path class="cls-5" d="M16.72,45.82c-.19-.63.53-1.75.76-2.76.6-3.43-1.03-7.18-1.94-10.27-2.82-9.21-4.15-20.2,2.83-27.93,5.33-5.5,14.22-5.46,20.12-1.74,6.62,4.56,7.87,13.28,5.67,20.59-1.93,6.64-6.43,11.81-11.65,16.51-4.05,3.39-8.39,6.85-13.83,6.39-.65-.05-1.63-.16-1.91-.69l-.04-.09Z"/>
    <g>
      <path class="cls-2" d="M32.16,18.69c.65.51-.21,3.31-2.23,3.88-1.56.44-3.83-.42-4.53-2.96-.06-.2.16-.39.39-.34.85.15,1.97.25,3.24.07,1.88-.27,2.72-.96,3.13-.65Z"/>
      <path class="cls-1" d="M28.41,22.4c-.29-.08-.54-.26-.89-.5-.31-.21-.32-.27-.32-.3.03-.21.71-.2,1.63-.49.62-.19,1.38-.52,2.42-.97.27-.12.57-.25.68-.17.14.11-.13.5-.26.7-.24.36-.53.79-1.15,1.17-.34.21-1.28.78-2.11.55Z"/>
      <path class="cls-4" d="M32.16,18.69c.65.51-.21,3.31-2.23,3.88-1.56.44-3.83-.42-4.53-2.96-.06-.2.16-.39.39-.34.85.15,1.97.25,3.24.07,1.88-.27,2.72-.96,3.13-.65Z"/>
    </g>
    <path class="cls-3" d="M25.04,12.03c0,1.89-.57,3.42-1.27,3.42s-1.27-1.53-1.27-3.42c0-1.89.57-3.42,1.27-3.42s1.27,1.53,1.27,3.42Z"/>
    <path class="cls-3" d="M34.51,12.03c0,1.95-.57,3.53-1.27,3.53s-1.27-1.58-1.27-3.53.57-3.53,1.27-3.53,1.27,1.58,1.27,3.53Z"/>
  </g>
</svg>